<svg xmlns="http://www.w3.org/2000/svg" viewBox="0 0 245.2 104.18"><defs><style>.cls-1{isolation:isolate;}.cls-2{fill:none;stroke:#414143;stroke-linecap:round;stroke-miterlimit:10;stroke-width:2px;}.cls-3,.cls-8{fill:#49dac2;}.cls-4{fill:#414143;}.cls-5{fill:#fbf8ee;}.cls-6,.cls-7{fill:#fcb041;}.cls-7,.cls-8{mix-blend-mode:multiply;}.cls-8{opacity:0.5;}</style></defs><title>Asset 1</title><g class="cls-1"><g id="Layer_2" data-name="Layer 2"><g id="OBJECTS"><path class="cls-2" d="M45.22,1c17,0,19.88,27.87,19.88,27.87"/><path class="cls-3" d="M18,20.1V43.27a30.19,30.19,0,0,1,5.9-.58A30.58,30.58,0,0,1,54.43,73.27C54.43,82.23,49,91,42.69,98H86a9.47,9.47,0,0,0,9.48-9.48V20.1Z"/><path class="cls-4" d="M78.52,20.1V88.56A9.48,9.48,0,0,0,88,98h8.27a9.48,9.48,0,0,0,9.48-9.48V20.1Z"/><path class="cls-5" d="M27.54,29a2.45,2.45,0,1,1-2.45-2.45A2.45,2.45,0,0,1,27.54,29Z"/><path class="cls-5" d="M58.52,29a2.46,2.46,0,1,1-2.46-2.45A2.46,2.46,0,0,1,58.52,29Z"/><path class="cls-5" d="M98.65,29a2.45,2.45,0,1,1-2.45-2.45A2.46,2.46,0,0,1,98.65,29Z"/><path class="cls-2" d="M56.06,28.87S59,1,76.07,1,95.94,28.87,95.94,28.87"/><path class="cls-2" d="M25.22,28.87S28.19,1,45.22,1"/><path class="cls-6" d="M23.45,49.16A23.45,23.45,0,0,0,0,72.62c0,16.55,23.45,31.56,23.45,31.56S46.9,88.9,46.9,72.62A23.45,23.45,0,0,0,23.45,49.16Zm0,36.32A15.28,15.28,0,1,1,38.73,70.2,15.28,15.28,0,0,1,23.45,85.48Z"/><path class="cls-7" d="M11.84,94.72a80.6,80.6,0,0,0,11.61,9.46S46.9,88.9,46.9,72.62a23.85,23.85,0,0,0-.39-4.26C47.59,82.15,29.79,99.22,11.84,94.72Z"/><path class="cls-8" d="M66.61,98c-3.11-18.85-9.72-36.92-22-47.26a30.46,30.46,0,0,1,9.87,22.49C54.43,82.23,49,91,42.69,98Z"/><path class="cls-6" d="M23.45,81.34A11.15,11.15,0,1,1,34.6,70.2,11.13,11.13,0,0,1,23.45,81.34Z"/></g><g id="TEXTS"><path class="cls-4" d="M138.89,54c-6.93,0-12.35-3.44-12.58-10h8.36a3.69,3.69,0,0,0,4,3.67c2.3,0,3.77-1.15,3.77-3,0-6-16.12-2.75-16-14.19,0-6.1,5-9.5,11.75-9.5,7,0,11.75,3.49,12.07,9.64h-8.49A3.48,3.48,0,0,0,138,27.25c-1.88-.05-3.3.92-3.3,2.94,0,5.6,15.93,3.07,15.93,13.86C150.65,49.47,146.42,54,138.89,54Z"/><path class="cls-4" d="M155.47,19.67h7.85v11.8a9.46,9.46,0,0,1,7.9-3.72c5.83,0,9.73,4,9.73,10.93v15h-7.8V39.74c0-3.49-1.93-5.42-4.91-5.42s-4.92,1.93-4.92,5.42V53.65h-7.85Z"/><path class="cls-4" d="M198.08,54c-7.53,0-13.22-5.05-13.22-13.18s5.83-13.18,13.31-13.18,13.32,5.05,13.32,13.18S205.61,54,198.08,54Zm0-6.8c2.8,0,5.42-2.06,5.42-6.38s-2.57-6.38-5.33-6.38-5.32,2-5.32,6.38S195.24,47.22,198.08,47.22Z"/><path class="cls-4" d="M231.42,27.66c6.29,0,11.29,5.05,11.29,13.13S237.71,54,231.42,54a9.23,9.23,0,0,1-7.9-4V65.86h-7.85V28h7.85v3.63A9.06,9.06,0,0,1,231.42,27.66Zm-2.34,6.84c-2.94,0-5.6,2.25-5.6,6.34s2.66,6.34,5.6,6.34,5.65-2.3,5.65-6.39S232.06,34.5,229.08,34.5Z"/><path class="cls-6" d="M135.08,64.29V90.46h10.29v6.06H127.23V64.29Z"/><path class="cls-6" d="M160.8,96.89c-7.53,0-13.23-5-13.23-13.18s5.83-13.17,13.32-13.17,13.31,5,13.31,13.17S168.33,96.89,160.8,96.89Zm0-6.79c2.8,0,5.41-2.07,5.41-6.39s-2.57-6.38-5.32-6.38-5.33,2-5.33,6.38S158,90.1,160.8,90.1Z"/><path class="cls-6" d="M189.68,70.54c6.43,0,11,3.53,12.3,9.64h-8.35a4,4,0,0,0-4.09-2.94c-2.8,0-4.73,2.2-4.73,6.47s1.93,6.48,4.73,6.48a4,4,0,0,0,4.09-2.94H202c-1.33,5.92-5.87,9.64-12.3,9.64-7.53,0-12.86-5-12.86-13.18S182.15,70.54,189.68,70.54Z"/><path class="cls-6" d="M215.9,70.54a8.92,8.92,0,0,1,7.9,4V70.9h7.85V96.52H223.8V92.9a9.07,9.07,0,0,1-8,4c-6.24,0-11.25-5.14-11.25-13.22S209.61,70.54,215.9,70.54Zm2.3,6.84c-2.94,0-5.61,2.2-5.61,6.29s2.67,6.38,5.61,6.38,5.6-2.25,5.6-6.34S221.18,77.38,218.2,77.38Z"/><path class="cls-6" d="M237.34,62.55h7.86v34h-7.86Z"/></g></g></g></svg>